# xmcd
#
# Track frame offsets: 
#        183
#        9338
#        22338
#        30278
#        40418
#        50033
#        59548
#        70610
#        81585
#        90838
#        100508
#        111710
#        121240
#        132733
#        143415
#        153235
#        163765
#        175993
#        186133
#        194850
#        204273
#        216868
#        226123
#        234215
#
# Disc length: 3255 seconds
#
# Revision: 1
# Processed by: cddbd v1.5.2PL0 Copyright (c) Steve Scherf et al.
# Submitted via: ExactAudioCopy v0.99pb5
#
DISCID=4b0cb518
DTITLE=The Ventures - The Ep Collection
DYEAR=1990
DGENRE=R&B
TTITLE0=No trespassing
TTITLE1=Night train
TTITLE2=Ram bunk shush
TTITLE3=Lonely heart
TTITLE4=Ups 'n' downs
TTITLE5=Torquay
TTITLE6=Bulldog
TTITLE7=Meet Mr. Callaghan
TTITLE8=Trambone
TTITLE9=Josie
TTITLE10=Yellow jacket
TTITLE11=Bluer than blue
TTITLE12=Gringo
TTITLE13=Moon dawg
TTITLE14=Sunny river
TTITLE15=Guitar twist
TTITLE16=Telstar
TTITLE17=Percolator
TTITLE18=Silver City
TTITLE19=Wildwood flower
TTITLE20=Wabash Cannonball
TTITLE21=Secret Agent Man
TTITLE22=Man from U.n.c.l.e
TTITLE23=Hot line
EXTD=
EXTT0=
EXTT1=
EXTT2=
EXTT3=
EXTT4=
EXTT5=
EXTT6=
EXTT7=
EXTT8=
EXTT9=
EXTT10=
EXTT11=
EXTT12=
EXTT13=
EXTT14=
EXTT15=
EXTT16=
EXTT17=
EXTT18=
EXTT19=
EXTT20=
EXTT21=
EXTT22=
EXTT23=
PLAYORDER=
